<?xml version="1.0" encoding="UTF-8"?>
<svg width="40px" height="40px" viewBox="0 0 40 40" version="1.1" xmlns="http://www.w3.org/2000/svg" xmlns:xlink="http://www.w3.org/1999/xlink">
    <!-- Generator: Sketch 58 (84663) - https://sketch.com -->
    <title>ic/03_cold</title>
    <desc>Created with Sketch.</desc>
    <g id="Page-1" stroke="none" stroke-width="1" fill="none" fill-rule="evenodd">
        <g id="-" transform="translate(-32.000000, -459.000000)">
            <g id="ic/03_cold" transform="translate(32.000000, 459.000000)">
                <circle id="Oval" fill="#5F0080" fill-rule="nonzero" cx="20" cy="20" r="20"></circle>
                <path d="M8,12 L24,12 C24.4418278,12 24.8,12.3581722 24.8,12.8 L24.8,25.6 L24.8,25.6 L8,25.6 C7.5581722,25.6 7.2,25.2418278 7.2,24.8 L7.2,12.8 C7.2,12.3581722 7.5581722,12 8,12 Z" id="Rectangle" stroke="#FFFFFF" stroke-linejoin="round"></path>
                <path d="M24.8,18.4 L34.4,18.4 L34.4,24.8 C34.4,25.2418278 34.0418278,25.6 33.6,25.6 L24.8,25.6 L24.8,25.6 L24.8,18.4 Z" id="Rectangle" stroke="#FFFFFF" stroke-linejoin="round"></path>
                <path d="M24.8,15.2 L31.4027149,15.2 C31.6426614,15.2 31.8699375,15.3077014 32.0218807,15.4934098 L34.4,18.4 L34.4,18.4 L24.8,18.4 L24.8,15.2 Z" id="Rectangle" stroke="#FFFFFF" stroke-linejoin="round"></path>
                <circle id="Oval" stroke="#FFFFFF" fill="#5F0080" fill-rule="nonzero" cx="12" cy="26.4" r="2.4"></circle>
                <circle id="Oval" stroke="#FFFFFF" fill="#5F0080" fill-rule="nonzero" cx="29.6" cy="26.4" r="2.4"></circle>
            </g>
        </g>
    </g>
</svg>