<svg xmlns="http://www.w3.org/2000/svg" width="64" height="64"><g transform="translate(-122 37)"><circle cx="32" cy="32" r="32" fill="#f7f7f7" transform="translate(122 -37)"/><path fill="#282828" d="M159.5-10h-3.3a1.1 1.1 0 00-1.1 1.1 1.1 1.1 0 001.1 1.1h3.3a3.31 3.31 0 013.3 3.3 3.31 3.31 0 01-3.3 3.3h-3.3a1.1 1.1 0 00-1.1 1.1 1.1 1.1 0 001.1 1.1h3.3a5.5 5.5 0 005.5-5.5 5.5 5.5 0 00-5.5-5.5zm-9.9 5.5a1.1 1.1 0 001.1 1.1h6.6a1.1 1.1 0 001.1-1.1 1.1 1.1 0 00-1.1-1.1h-6.6a1.1 1.1 0 00-1.1 1.1zm2.2 3.3h-3.3a3.31 3.31 0 01-3.3-3.3 3.31 3.31 0 013.3-3.3h3.3a1.1 1.1 0 001.1-1.1 1.1 1.1 0 00-1.1-1.1h-3.3a5.5 5.5 0 00-5.5 5.5 5.5 5.5 0 005.5 5.5h3.3a1.1 1.1 0 001.1-1.1 1.1 1.1 0 00-1.1-1.1z" data-name="패스 126"/></g></svg>