<svg xmlns="http://www.w3.org/2000/svg" width="24" height="24" viewBox="0 0 24 24">
    <g id="prefix__ico_won" transform="translate(-143 -538)">
        <circle id="prefix__ico_w" cx="12" cy="12" r="12" fill="none" transform="translate(143 538)"/>
        <path id="prefix__Icon_awesome-won-sign" fill="#875eb3" d="M13.219 6.033a.282.282 0 0 0 .281-.281v-.938a.282.282 0 0 0-.281-.281h-1.125l.436-1.889a.282.282 0 0 0-.274-.345h-1.08a.279.279 0 0 0-.274.223l-.337 2.011H7.987l-.461-2.016a.281.281 0 0 0-.274-.217H6.22a.281.281 0 0 0-.274.218l-.469 2.015H2.93l-.41-2.009a.281.281 0 0 0-.277-.224h-.987a.28.28 0 0 0-.274.342l.424 1.891H.281A.282.282 0 0 0 0 4.814v.938a.282.282 0 0 0 .281.281h1.46l.169.75H.281A.282.282 0 0 0 0 7.064V8a.282.282 0 0 0 .281.281h1.967l.959 4.28a.281.281 0 0 0 .274.22h1.331a.283.283 0 0 0 .274-.218l.991-4.282h1.292l.994 4.282a.283.283 0 0 0 .274.218h1.331a.283.283 0 0 0 .274-.218l.987-4.282h1.99A.282.282 0 0 0 13.5 8v-.936a.282.282 0 0 0-.281-.281h-1.643l.173-.75zM4.308 9.548a8.749 8.749 0 0 0-.171 1.106h-.026a10.233 10.233 0 0 0-.159-1.106l-.258-1.265H4.6zm.645-2.766H3.387l-.152-.75h1.893zm1.474 0l.047-.2c.045-.187.082-.375.112-.548h.277c.03.173.068.361.113.548l.047.2zm3.068 2.766a10.233 10.233 0 0 0-.159 1.106h-.027a9.294 9.294 0 0 0-.171-1.106l-.29-1.265h.916zm.591-2.766H8.505l-.171-.75h1.913z" data-name="Icon awesome-won-sign" transform="translate(148.25 542.451)"/>
    </g>
</svg>
