<svg xmlns="http://www.w3.org/2000/svg" width="24" height="24" viewBox="0 0 24 24">
    <defs>
        <style>
            .prefix__cls-2{fill:#875eb3}
        </style>
    </defs>
    <g id="prefix__ico_gift" transform="translate(-143 -655)">
        <circle id="prefix__ico_gift-2" cx="12" cy="12" r="12" fill="none" data-name="ico_gift" transform="translate(143 655)"/>
        <g id="prefix__Icon_ionic-ios-gift" data-name="Icon ionic-ios-gift" transform="translate(149 660.25)">
            <path id="prefix__패스_140" d="M14.452 5.21H12.02a1.663 1.663 0 0 0 .586-1.252 1.768 1.768 0 0 0-1.82-1.708 1.614 1.614 0 0 0-1.411.78 1.614 1.614 0 0 0-1.411-.78 1.768 1.768 0 0 0-1.82 1.708A1.653 1.653 0 0 0 6.73 5.21H4.3a.916.916 0 0 0-.923.911v.569a.115.115 0 0 0 .113.11h11.77a.115.115 0 0 0 .115-.114v-.565a.916.916 0 0 0-.923-.911zm-3.666-2.163a.943.943 0 0 1 .972.911.943.943 0 0 1-.972.911h-.973c0-1.369.436-1.822.973-1.822zm-2.821 0c.537 0 .972.455.972 1.821h-.973a.943.943 0 0 1-.972-.911.943.943 0 0 1 .972-.91z" class="prefix__cls-2" data-name="패스 140" transform="translate(-3.375 -2.25)"/>
            <path id="prefix__패스_141" d="M4.5 15.556v6.318a.92.92 0 0 0 .923.911h4.212v-7.457h-4.9a.23.23 0 0 0-.235.228z" class="prefix__cls-2" data-name="패스 141" transform="translate(-4.038 -10.035)"/>
            <path id="prefix__패스_142" d="M23.888 15.328h-4.9v7.456H23.2a.92.92 0 0 0 .923-.911v-6.317a.23.23 0 0 0-.235-.228z" class="prefix__cls-2" data-name="패스 142" transform="translate(-12.581 -10.035)"/>
        </g>
    </g>
</svg>
