<svg xmlns="http://www.w3.org/2000/svg" width="32" height="32"><g transform="translate(-143 -538)"><circle cx="16" cy="16" r="16" fill="none" transform="translate(143 538)"/><path fill="#ba99e1" d="M167.625 551.978a.376.376 0 00.375-.377v-1.248a.376.376 0 00-.375-.375h-1.5l.581-2.519a.376.376 0 00-.366-.459h-1.44a.372.372 0 00-.366.3l-.45 2.681h-3.434l-.616-2.69a.374.374 0 00-.365-.29h-1.375a.374.374 0 00-.366.291l-.628 2.686h-3.4l-.541-2.677a.375.375 0 00-.369-.3h-1.315a.374.374 0 00-.366.456l.566 2.522h-1.5a.376.376 0 00-.375.374v1.248a.376.376 0 00.375.375h1.947l.225 1h-2.172a.376.376 0 00-.375.377v1.248a.376.376 0 00.375.375H153l1.278 5.706a.374.374 0 00.366.294h1.772a.378.378 0 00.366-.291l1.318-5.707h1.725l1.325 5.709a.378.378 0 00.366.291h1.775a.378.378 0 00.366-.291l1.316-5.709h2.653a.376.376 0 00.374-.377v-1.248a.376.376 0 00-.375-.375h-2.191l.231-1zm-11.881 4.688a11.666 11.666 0 00-.228 1.475h-.035a13.644 13.644 0 00-.212-1.475l-.344-1.687h1.213zm.856-3.688h-2.084l-.2-1h2.522zm1.966 0l.063-.269c.059-.25.109-.5.15-.731h.371c.041.231.091.481.15.731l.063.269zm4.091 3.688a13.644 13.644 0 00-.213 1.475h-.034a12.392 12.392 0 00-.228-1.475l-.382-1.688h1.222zm.787-3.687h-2.103l-.228-1h2.55z" data-name="Icon awesome-won-sign"/></g></svg>